<svg width="20" height="20" viewBox="0 0 20 20" fill="none" xmlns="http://www.w3.org/2000/svg">
    <g id='trash'>
        <path d="M2.5 5H4.16667H17.5" stroke="#B6B6B6" stroke-width="1.2" stroke-linecap="round"
              stroke-linejoin="round"/>
        <path d="M6.66663 5.00001V3.33334C6.66663 2.89131 6.84222 2.46739 7.15478 2.15483C7.46734 1.84227 7.89127 1.66667 8.33329 1.66667H11.6666C12.1087 1.66667 12.5326 1.84227 12.8451 2.15483C13.1577 2.46739 13.3333 2.89131 13.3333 3.33334V5.00001M15.8333 5.00001V16.6667C15.8333 17.1087 15.6577 17.5326 15.3451 17.8452C15.0326 18.1577 14.6087 18.3333 14.1666 18.3333H5.83329C5.39127 18.3333 4.96734 18.1577 4.65478 17.8452C4.34222 17.5326 4.16663 17.1087 4.16663 16.6667V5.00001H15.8333Z"
              stroke="#B6B6B6" stroke-width="1.2" stroke-linecap="round" stroke-linejoin="round"/>
        <path d="M8.33337 9.16667V14.1667" stroke="#B6B6B6" stroke-width="1.2" stroke-linecap="round"
              stroke-linejoin="round"/>
        <path d="M11.6666 9.16667V14.1667" stroke="#B6B6B6" stroke-width="1.2" stroke-linecap="round"
              stroke-linejoin="round"/>
    </g>
    <g id='cart'>
        <path d="M6.33333 16.3333C7.06971 16.3333 7.66667 15.7364 7.66667 15C7.66667 14.2636 7.06971 13.6667 6.33333 13.6667C5.59695 13.6667 5 14.2636 5 15C5 15.7364 5.59695 16.3333 6.33333 16.3333Z"
              stroke="white" stroke-width="1.8" stroke-linecap="round" stroke-linejoin="round"/>
        <path d="M14.3333 16.3333C15.0697 16.3333 15.6667 15.7364 15.6667 15C15.6667 14.2636 15.0697 13.6667 14.3333 13.6667C13.597 13.6667 13 14.2636 13 15C13 15.7364 13.597 16.3333 14.3333 16.3333Z"
              stroke="white" stroke-width="1.8" stroke-linecap="round" stroke-linejoin="round"/>
        <path d="M4.78002 4.99999H16.3334L15.2134 10.5933C15.1524 10.9003 14.9854 11.176 14.7417 11.3722C14.4979 11.5684 14.1929 11.6727 13.88 11.6667H6.83335C6.50781 11.6694 6.1925 11.553 5.94689 11.3393C5.70128 11.1256 5.54233 10.8295 5.50002 10.5067L4.48669 2.82666C4.44466 2.50615 4.28764 2.21182 4.04482 1.99844C3.80201 1.78505 3.48994 1.66715 3.16669 1.66666H1.66669"
              stroke="white" stroke-width="1.8" stroke-linecap="round" stroke-linejoin="round"/>
    </g>
    <g id='cart-black'>
        <path d="M6.33333 16.3333C7.06971 16.3333 7.66667 15.7364 7.66667 15C7.66667 14.2636 7.06971 13.6667 6.33333 13.6667C5.59695 13.6667 5 14.2636 5 15C5 15.7364 5.59695 16.3333 6.33333 16.3333Z"
              stroke="black" stroke-width="1.8" stroke-linecap="round" stroke-linejoin="round"/>
        <path d="M14.3333 16.3333C15.0697 16.3333 15.6667 15.7364 15.6667 15C15.6667 14.2636 15.0697 13.6667 14.3333 13.6667C13.597 13.6667 13 14.2636 13 15C13 15.7364 13.597 16.3333 14.3333 16.3333Z"
              stroke="black" stroke-width="1.8" stroke-linecap="round" stroke-linejoin="round"/>
        <path d="M4.78002 4.99999H16.3334L15.2134 10.5933C15.1524 10.9003 14.9854 11.176 14.7417 11.3722C14.4979 11.5684 14.1929 11.6727 13.88 11.6667H6.83335C6.50781 11.6694 6.1925 11.553 5.94689 11.3393C5.70128 11.1256 5.54233 10.8295 5.50002 10.5067L4.48669 2.82666C4.44466 2.50615 4.28764 2.21182 4.04482 1.99844C3.80201 1.78505 3.48994 1.66715 3.16669 1.66666H1.66669"
              stroke="black" stroke-width="1.8" stroke-linecap="round" stroke-linejoin="round"/>
    </g>
    <g id='arrow-left' transform="translate(0.000000,64.000000) scale(0.100000,-0.100000)"
       stroke="none">
        <path d="M304 416 l-99 -94 55 -57 c94 -97 149 -140 163 -126 9 10 -7 31 -75
97 l-87 84 85 82 c79 76 93 97 68 105 -6 2 -55 -39 -110 -91z"/>
    </g>
    <g id='arrow-right' transform="translate(0.000000,64.000000) scale(0.100000,-0.100000)"
       stroke="none">
        <path d="M214 499 c-4 -6 30 -47 77 -95 l84 -84 -85 -85 c-64 -64 -81 -88 -73
-96 9 -9 28 3 80 49 37 33 84 77 103 97 l35 37 -99 94 c-55 52 -103 94 -107
94 -4 0 -11 -5 -15 -11z"/>
    </g>
    <g id='call' transform="translate(0.000000,64.000000) scale(0.100000,-0.100000)"
       stroke="none">
        <path d="M223 622 c-109 -39 -178 -112 -210 -221 -29 -102 4 -228 82 -306 122
-121 328 -121 450 0 91 92 118 241 64 356 -69 146 -241 223 -386 171z m50
-216 c-3 -6 -15 -21 -25 -33 -15 -16 -17 -25 -10 -40 13 -24 98 -103 111 -103
5 0 23 11 39 25 l29 24 37 -38 38 -39 -22 -20 c-34 -31 -66 -35 -116 -13 -64
29 -115 72 -158 134 -51 73 -56 114 -21 156 l28 32 38 -37 c21 -20 35 -42 32
-48z"/>
    </g>
</svg>