<svg width="20" height="20" viewBox="0 0 20 20" fill="none" xmlns="http://www.w3.org/2000/svg">
    <g id='trash' transform="translate(0.000000,512.000000) scale(0.100000,-0.100000)"
       stroke="none">
        <path d="M2240 4791 c-101 -32 -180 -128 -180 -220 l0 -21 515 0 515 0 0 28
c-1 36 -35 110 -68 145 -15 16 -45 39 -67 50 -38 21 -53 22 -365 24 -179 1
-336 -2 -350 -6z"/>
        <path d="M1363 4386 c-186 -46 -339 -212 -374 -406 -7 -42 -9 -74 -3 -78 5 -4
723 -6 1597 -4 l1587 3 -6 42 c-11 85 -45 178 -87 239 -52 76 -156 158 -242
190 l-60 23 -1180 2 c-921 1 -1191 -1 -1232 -11z"/>
        <path d="M1222 2248 c3 -1500 3 -1503 24 -1554 48 -117 136 -204 250 -247 l59
-22 980 -3 c676 -2 1000 1 1044 8 173 30 308 164 341 339 6 35 10 564 10 1517
l0 1464 -1355 0 -1355 0 2 -1502z m645 1092 c68 -41 64 43 63 -1245 0 -1287 4
-1204 -63 -1245 -63 -39 -152 -17 -194 47 -17 26 -18 88 -21 1181 -2 1125 -2
1154 17 1197 35 79 127 109 198 65z m784 -3 c74 -49 69 41 69 -1240 0 -1255 3
-1187 -59 -1240 -61 -51 -169 -29 -206 42 -14 27 -15 157 -13 1205 l3 1175 30
31 c17 18 39 36 50 40 38 16 91 11 126 -13z m775 7 c18 -9 43 -31 54 -49 20
-32 20 -47 20 -1201 0 -1142 -1 -1170 -20 -1201 -57 -94 -202 -80 -246 24 -12
27 -14 230 -14 1180 0 1073 1 1150 18 1183 35 71 116 98 188 64z"/>
    </g>
    <g id='cart'>
        <path d="M6.33333 16.3333C7.06971 16.3333 7.66667 15.7364 7.66667 15C7.66667 14.2636 7.06971 13.6667 6.33333 13.6667C5.59695 13.6667 5 14.2636 5 15C5 15.7364 5.59695 16.3333 6.33333 16.3333Z"
              stroke="white" stroke-width="1.8" stroke-linecap="round" stroke-linejoin="round"/>
        <path d="M14.3333 16.3333C15.0697 16.3333 15.6667 15.7364 15.6667 15C15.6667 14.2636 15.0697 13.6667 14.3333 13.6667C13.597 13.6667 13 14.2636 13 15C13 15.7364 13.597 16.3333 14.3333 16.3333Z"
              stroke="white" stroke-width="1.8" stroke-linecap="round" stroke-linejoin="round"/>
        <path d="M4.78002 4.99999H16.3334L15.2134 10.5933C15.1524 10.9003 14.9854 11.176 14.7417 11.3722C14.4979 11.5684 14.1929 11.6727 13.88 11.6667H6.83335C6.50781 11.6694 6.1925 11.553 5.94689 11.3393C5.70128 11.1256 5.54233 10.8295 5.50002 10.5067L4.48669 2.82666C4.44466 2.50615 4.28764 2.21182 4.04482 1.99844C3.80201 1.78505 3.48994 1.66715 3.16669 1.66666H1.66669"
              stroke="white" stroke-width="1.8" stroke-linecap="round" stroke-linejoin="round"/>
    </g>
    <g id='cart-black'>
        <path d="M6.33333 16.3333C7.06971 16.3333 7.66667 15.7364 7.66667 15C7.66667 14.2636 7.06971 13.6667 6.33333 13.6667C5.59695 13.6667 5 14.2636 5 15C5 15.7364 5.59695 16.3333 6.33333 16.3333Z"
              stroke="black" stroke-width="1.8" stroke-linecap="round" stroke-linejoin="round"/>
        <path d="M14.3333 16.3333C15.0697 16.3333 15.6667 15.7364 15.6667 15C15.6667 14.2636 15.0697 13.6667 14.3333 13.6667C13.597 13.6667 13 14.2636 13 15C13 15.7364 13.597 16.3333 14.3333 16.3333Z"
              stroke="black" stroke-width="1.8" stroke-linecap="round" stroke-linejoin="round"/>
        <path d="M4.78002 4.99999H16.3334L15.2134 10.5933C15.1524 10.9003 14.9854 11.176 14.7417 11.3722C14.4979 11.5684 14.1929 11.6727 13.88 11.6667H6.83335C6.50781 11.6694 6.1925 11.553 5.94689 11.3393C5.70128 11.1256 5.54233 10.8295 5.50002 10.5067L4.48669 2.82666C4.44466 2.50615 4.28764 2.21182 4.04482 1.99844C3.80201 1.78505 3.48994 1.66715 3.16669 1.66666H1.66669"
              stroke="black" stroke-width="1.8" stroke-linecap="round" stroke-linejoin="round"/>
    </g>
    <g id='arrow-left' transform="translate(0.000000,64.000000) scale(0.100000,-0.100000)"
       stroke="none">
        <path d="M304 416 l-99 -94 55 -57 c94 -97 149 -140 163 -126 9 10 -7 31 -75
97 l-87 84 85 82 c79 76 93 97 68 105 -6 2 -55 -39 -110 -91z"/>
    </g>
    <g id='arrow-right' transform="translate(0.000000,64.000000) scale(0.100000,-0.100000)"
       stroke="none">
        <path d="M214 499 c-4 -6 30 -47 77 -95 l84 -84 -85 -85 c-64 -64 -81 -88 -73
-96 9 -9 28 3 80 49 37 33 84 77 103 97 l35 37 -99 94 c-55 52 -103 94 -107
94 -4 0 -11 -5 -15 -11z"/>
    </g>
    <g id='call' transform="translate(0.000000,64.000000) scale(0.100000,-0.100000)"
       stroke="none">
        <path d="M223 622 c-109 -39 -178 -112 -210 -221 -29 -102 4 -228 82 -306 122
-121 328 -121 450 0 91 92 118 241 64 356 -69 146 -241 223 -386 171z m50
-216 c-3 -6 -15 -21 -25 -33 -15 -16 -17 -25 -10 -40 13 -24 98 -103 111 -103
5 0 23 11 39 25 l29 24 37 -38 38 -39 -22 -20 c-34 -31 -66 -35 -116 -13 -64
29 -115 72 -158 134 -51 73 -56 114 -21 156 l28 32 38 -37 c21 -20 35 -42 32
-48z"/>
    </g>
</svg>